<svg xmlns="http://www.w3.org/2000/svg" style="display: none;">
    <!-- A -->
    <!-- B -->
    <svg id="building-office-2" xmlns="http://www.w3.org/2000/svg" fill="none" viewBox="0 0 24 24" stroke-width="1.5" stroke="currentColor" class="size-6">
        <path stroke-linecap="round" stroke-linejoin="round" d="M2.25 21h19.5m-18-18v18m10.5-18v18m6-13.5V21M6.75 6.75h.75m-.75 3h.75m-.75 3h.75m3-6h.75m-.75 3h.75m-.75 3h.75M6.75 21v-3.375c0-.621.504-1.125 1.125-1.125h2.25c.621 0 1.125.504 1.125 1.125V21M3 3h12m-.75 4.5H21m-3.75 3.75h.008v.008h-.008v-.008Zm0 3h.008v.008h-.008v-.008Zm0 3h.008v.008h-.008v-.008Z" />
    </svg>

    <!-- C -->
    <svg id="check" xmlns="http://www.w3.org/2000/svg" fill="none" viewBox="0 0 24 24" stroke-width="1.5" stroke="currentColor" class="size-6">
        <path stroke-linecap="round" stroke-linejoin="round" d="m4.5 12.75 6 6 9-13.5" />
    </svg>

    <!-- D -->
    <!-- E -->
    <svg id="exclamation-circle" xmlns="http://www.w3.org/2000/svg" viewBox="0 0 24 24" fill="currentColor" class="size-6">
        <path fill-rule="evenodd" d="M2.25 12c0-5.385 4.365-9.75 9.75-9.75s9.75 4.365 9.75 9.75-4.365 9.75-9.75 9.75S2.25 17.385 2.25 12ZM12 8.25a.75.75 0 0 1 .75.75v3.75a.75.75 0 0 1-1.5 0V9a.75.75 0 0 1 .75-.75Zm0 8.25a.75.75 0 1 0 0-1.5.75.75 0 0 0 0 1.5Z" clip-rule="evenodd" />
    </svg>

    <svg id="eye" xmlns="http://www.w3.org/2000/svg" viewBox="0 0 24 24" fill="currentColor" class="size-6">
        <path d="M12 15a3 3 0 1 0 0-6 3 3 0 0 0 0 6Z" />
        <path fill-rule="evenodd" d="M1.323 11.447C2.811 6.976 7.028 3.75 12.001 3.75c4.97 0 9.185 3.223 10.675 7.69.12.362.12.752 0 1.113-1.487 4.471-5.705 7.697-10.677 7.697-4.97 0-9.186-3.223-10.675-7.69a1.762 1.762 0 0 1 0-1.113ZM17.25 12a5.25 5.25 0 1 1-10.5 0 5.25 5.25 0 0 1 10.5 0Z" clip-rule="evenodd" />
    </svg>

    <svg id="eye-slash" xmlns="http://www.w3.org/2000/svg" viewBox="0 0 24 24" fill="currentColor" class="size-6">
        <path d="M3.53 2.47a.75.75 0 0 0-1.06 1.06l18 18a.75.75 0 1 0 1.06-1.06l-18-18ZM22.676 12.553a11.249 11.249 0 0 1-2.631 4.31l-3.099-3.099a5.25 5.25 0 0 0-6.71-6.71L7.759 4.577a11.217 11.217 0 0 1 4.242-.827c4.97 0 9.185 3.223 10.675 7.69.12.362.12.752 0 1.113Z" />
        <path d="M15.75 12c0 .18-.013.357-.037.53l-4.244-4.243A3.75 3.75 0 0 1 15.75 12ZM12.53 15.713l-4.243-4.244a3.75 3.75 0 0 0 4.244 4.243Z" />
        <path d="M6.75 12c0-.619.107-1.213.304-1.764l-3.1-3.1a11.25 11.25 0 0 0-2.63 4.31c-.12.362-.12.752 0 1.114 1.489 4.467 5.704 7.69 10.675 7.69 1.5 0 2.933-.294 4.242-.827l-2.477-2.477A5.25 5.25 0 0 1 6.75 12Z" />
    </svg>

    <!-- F -->
    <!-- G -->
    <!-- H -->
    <!-- I -->
    <!-- J -->
    <!-- K -->
    <!-- L -->
    <svg id="lock-closed" xmlns="http://www.w3.org/2000/svg" viewBox="0 0 24 24" fill="currentColor" class="size-6">
        <path fill-rule="evenodd" d="M12 1.5a5.25 5.25 0 0 0-5.25 5.25v3a3 3 0 0 0-3 3v6.75a3 3 0 0 0 3 3h10.5a3 3 0 0 0 3-3v-6.75a3 3 0 0 0-3-3v-3c0-2.9-2.35-5.25-5.25-5.25Zm3.75 8.25v-3a3.75 3.75 0 1 0-7.5 0v3h7.5Z" clip-rule="evenodd" />
    </svg>

    <!-- M -->
    <!-- N -->
    <!-- O -->
    <!-- P -->
    <!-- Q -->
    <!-- R -->
    <!-- S -->
    <!-- T -->
    <!-- U -->
    <svg id="user" xmlns="http://www.w3.org/2000/svg" viewBox="0 0 24 24" fill="currentColor" class="size-6">
        <path fill-rule="evenodd" d="M7.5 6a4.5 4.5 0 1 1 9 0 4.5 4.5 0 0 1-9 0ZM3.751 20.105a8.25 8.25 0 0 1 16.498 0 .75.75 0 0 1-.437.695A18.683 18.683 0 0 1 12 22.5c-2.786 0-5.433-.608-7.812-1.7a.75.75 0 0 1-.437-.695Z" clip-rule="evenodd" />
    </svg>

    <!-- V -->
    <!-- W -->
    <!-- X -->
    <!-- Y -->
    <!-- Z -->
</svg>