<svg xmlns="http://www.w3.org/2000/svg" style="display: none;">
    <!-- A -->
    <svg id="arrow-left" xmlns="http://www.w3.org/2000/svg" viewBox="0 0 24 24" fill="currentColor" class="size-6">
        <path fill-rule="evenodd" d="M11.03 3.97a.75.75 0 0 1 0 1.06l-6.22 6.22H21a.75.75 0 0 1 0 1.5H4.81l6.22 6.22a.75.75 0 1 1-1.06 1.06l-7.5-7.5a.75.75 0 0 1 0-1.06l7.5-7.5a.75.75 0 0 1 1.06 0Z" clip-rule="evenodd" />
    </svg>

    <svg id="arrow-left-end-on-rectangle" xmlns="http://www.w3.org/2000/svg" viewBox="0 0 24 24" fill="currentColor" class="size-6">
        <path fill-rule="evenodd" d="M7.5 3.75A1.5 1.5 0 0 0 6 5.25v13.5a1.5 1.5 0 0 0 1.5 1.5h6a1.5 1.5 0 0 0 1.5-1.5V15a.75.75 0 0 1 1.5 0v3.75a3 3 0 0 1-3 3h-6a3 3 0 0 1-3-3V5.25a3 3 0 0 1 3-3h6a3 3 0 0 1 3 3V9A.75.75 0 0 1 15 9V5.25a1.5 1.5 0 0 0-1.5-1.5h-6Zm5.03 4.72a.75.75 0 0 1 0 1.06l-1.72 1.72h10.94a.75.75 0 0 1 0 1.5H10.81l1.72 1.72a.75.75 0 1 1-1.06 1.06l-3-3a.75.75 0 0 1 0-1.06l3-3a.75.75 0 0 1 1.06 0Z" clip-rule="evenodd" />
    </svg>

    <svg id="arrow-right" xmlns="http://www.w3.org/2000/svg" viewBox="0 0 24 24" fill="currentColor" class="size-6">
        <path fill-rule="evenodd" d="M12.97 3.97a.75.75 0 0 1 1.06 0l7.5 7.5a.75.75 0 0 1 0 1.06l-7.5 7.5a.75.75 0 1 1-1.06-1.06l6.22-6.22H3a.75.75 0 0 1 0-1.5h16.19l-6.22-6.22a.75.75 0 0 1 0-1.06Z" clip-rule="evenodd" />
    </svg>

    <!-- B -->
    <svg id="beaker" xmlns="http://www.w3.org/2000/svg" viewBox="0 0 24 24" fill="currentColor" class="size-6">
        <path fill-rule="evenodd" d="M10.5 3.798v5.02a3 3 0 0 1-.879 2.121l-2.377 2.377a9.845 9.845 0 0 1 5.091 1.013 8.315 8.315 0 0 0 5.713.636l.285-.071-3.954-3.955a3 3 0 0 1-.879-2.121v-5.02a23.614 23.614 0 0 0-3 0Zm4.5.138a.75.75 0 0 0 .093-1.495A24.837 24.837 0 0 0 12 2.25a25.048 25.048 0 0 0-3.093.191A.75.75 0 0 0 9 3.936v4.882a1.5 1.5 0 0 1-.44 1.06l-6.293 6.294c-1.62 1.621-.903 4.475 1.471 4.88 2.686.46 5.447.698 8.262.698 2.816 0 5.576-.239 8.262-.697 2.373-.406 3.092-3.26 1.47-4.881L15.44 9.879A1.5 1.5 0 0 1 15 8.818V3.936Z" clip-rule="evenodd" />
    </svg>

    <svg id="building-office-2" xmlns="http://www.w3.org/2000/svg" fill="none" viewBox="0 0 24 24" stroke-width="1.5" stroke="currentColor" class="size-6">
        <path stroke-linecap="round" stroke-linejoin="round" d="M2.25 21h19.5m-18-18v18m10.5-18v18m6-13.5V21M6.75 6.75h.75m-.75 3h.75m-.75 3h.75m3-6h.75m-.75 3h.75m-.75 3h.75M6.75 21v-3.375c0-.621.504-1.125 1.125-1.125h2.25c.621 0 1.125.504 1.125 1.125V21M3 3h12m-.75 4.5H21m-3.75 3.75h.008v.008h-.008v-.008Zm0 3h.008v.008h-.008v-.008Zm0 3h.008v.008h-.008v-.008Z" />
    </svg>

    <!-- C -->
    <svg id="calendar" xmlns="http://www.w3.org/2000/svg" viewBox="0 0 24 24" fill="currentColor" class="size-6">
        <path fill-rule="evenodd" d="M6.75 2.25A.75.75 0 0 1 7.5 3v1.5h9V3A.75.75 0 0 1 18 3v1.5h.75a3 3 0 0 1 3 3v11.25a3 3 0 0 1-3 3H5.25a3 3 0 0 1-3-3V7.5a3 3 0 0 1 3-3H6V3a.75.75 0 0 1 .75-.75Zm13.5 9a1.5 1.5 0 0 0-1.5-1.5H5.25a1.5 1.5 0 0 0-1.5 1.5v7.5a1.5 1.5 0 0 0 1.5 1.5h13.5a1.5 1.5 0 0 0 1.5-1.5v-7.5Z" clip-rule="evenodd" />
    </svg>

    <svg id="calendar-days" xmlns="http://www.w3.org/2000/svg" viewBox="0 0 24 24" fill="currentColor" class="size-6">
        <path d="M12.75 12.75a.75.75 0 1 1-1.5 0 .75.75 0 0 1 1.5 0ZM7.5 15.75a.75.75 0 1 0 0-1.5.75.75 0 0 0 0 1.5ZM8.25 17.25a.75.75 0 1 1-1.5 0 .75.75 0 0 1 1.5 0ZM9.75 15.75a.75.75 0 1 0 0-1.5.75.75 0 0 0 0 1.5ZM10.5 17.25a.75.75 0 1 1-1.5 0 .75.75 0 0 1 1.5 0ZM12 15.75a.75.75 0 1 0 0-1.5.75.75 0 0 0 0 1.5ZM12.75 17.25a.75.75 0 1 1-1.5 0 .75.75 0 0 1 1.5 0ZM14.25 15.75a.75.75 0 1 0 0-1.5.75.75 0 0 0 0 1.5ZM15 17.25a.75.75 0 1 1-1.5 0 .75.75 0 0 1 1.5 0ZM16.5 15.75a.75.75 0 1 0 0-1.5.75.75 0 0 0 0 1.5ZM15 12.75a.75.75 0 1 1-1.5 0 .75.75 0 0 1 1.5 0ZM16.5 13.5a.75.75 0 1 0 0-1.5.75.75 0 0 0 0 1.5Z" />
        <path fill-rule="evenodd" d="M6.75 2.25A.75.75 0 0 1 7.5 3v1.5h9V3A.75.75 0 0 1 18 3v1.5h.75a3 3 0 0 1 3 3v11.25a3 3 0 0 1-3 3H5.25a3 3 0 0 1-3-3V7.5a3 3 0 0 1 3-3H6V3a.75.75 0 0 1 .75-.75Zm13.5 9a1.5 1.5 0 0 0-1.5-1.5H5.25a1.5 1.5 0 0 0-1.5 1.5v7.5a1.5 1.5 0 0 0 1.5 1.5h13.5a1.5 1.5 0 0 0 1.5-1.5v-7.5Z" clip-rule="evenodd" />
    </svg>

    <svg id="chart-bar" xmlns="http://www.w3.org/2000/svg" viewBox="0 0 24 24" fill="currentColor" class="size-6">
        <path d="M18.375 2.25c-1.035 0-1.875.84-1.875 1.875v15.75c0 1.035.84 1.875 1.875 1.875h.75c1.035 0 1.875-.84 1.875-1.875V4.125c0-1.036-.84-1.875-1.875-1.875h-.75ZM9.75 8.625c0-1.036.84-1.875 1.875-1.875h.75c1.036 0 1.875.84 1.875 1.875v11.25c0 1.035-.84 1.875-1.875 1.875h-.75a1.875 1.875 0 0 1-1.875-1.875V8.625ZM3 13.125c0-1.036.84-1.875 1.875-1.875h.75c1.036 0 1.875.84 1.875 1.875v6.75c0 1.035-.84 1.875-1.875 1.875h-.75A1.875 1.875 0 0 1 3 19.875v-6.75Z" />
    </svg>

    <svg id="check" xmlns="http://www.w3.org/2000/svg" fill="none" viewBox="0 0 24 24" stroke-width="1.5" stroke="currentColor" class="size-6">
        <path stroke-linecap="round" stroke-linejoin="round" d="m4.5 12.75 6 6 9-13.5" />
    </svg>

    <svg id="check-circle" xmlns="http://www.w3.org/2000/svg" viewBox="0 0 24 24" fill="currentColor" class="size-6">
        <path fill-rule="evenodd" d="M2.25 12c0-5.385 4.365-9.75 9.75-9.75s9.75 4.365 9.75 9.75-4.365 9.75-9.75 9.75S2.25 17.385 2.25 12Zm13.36-1.814a.75.75 0 1 0-1.22-.872l-3.236 4.53L9.53 12.22a.75.75 0 0 0-1.06 1.06l2.25 2.25a.75.75 0 0 0 1.14-.094l3.75-5.25Z" clip-rule="evenodd" />
    </svg>

    <svg id="chevron-down" xmlns="http://www.w3.org/2000/svg" viewBox="0 0 24 24" fill="currentColor" class="size-6">
        <path fill-rule="evenodd" d="M12.53 16.28a.75.75 0 0 1-1.06 0l-7.5-7.5a.75.75 0 0 1 1.06-1.06L12 14.69l6.97-6.97a.75.75 0 1 1 1.06 1.06l-7.5 7.5Z" clip-rule="evenodd" />
    </svg>

    <svg id="chevron-left" xmlns="http://www.w3.org/2000/svg" viewBox="0 0 24 24" fill="currentColor" class="size-6">
        <path fill-rule="evenodd" d="M7.72 12.53a.75.75 0 0 1 0-1.06l7.5-7.5a.75.75 0 1 1 1.06 1.06L9.31 12l6.97 6.97a.75.75 0 1 1-1.06 1.06l-7.5-7.5Z" clip-rule="evenodd" />
    </svg>

    <svg id="chevron-right" xmlns="http://www.w3.org/2000/svg" viewBox="0 0 24 24" fill="currentColor" class="size-6">
        <path fill-rule="evenodd" d="M16.28 11.47a.75.75 0 0 1 0 1.06l-7.5 7.5a.75.75 0 0 1-1.06-1.06L14.69 12 7.72 5.03a.75.75 0 0 1 1.06-1.06l7.5 7.5Z" clip-rule="evenodd" />
    </svg>

    <svg id="clipboard-check" xmlns="http://www.w3.org/2000/svg" viewBox="0 0 24 24" fill="currentColor" class="size-6">
        <path fill-rule="evenodd" d="M7.502 6h7.128A3.375 3.375 0 0 1 18 9.375v9.375a3 3 0 0 0 3-3V6.108c0-1.505-1.125-2.811-2.664-2.94a48.972 48.972 0 0 0-.673-.05A3 3 0 0 0 15 1.5h-1.5a3 3 0 0 0-2.663 1.618c-.225.015-.45.032-.673.05C8.662 3.295 7.554 4.542 7.502 6ZM13.5 3A1.5 1.5 0 0 0 12 4.5h4.5A1.5 1.5 0 0 0 15 3h-1.5Z" clip-rule="evenodd" />
        <path fill-rule="evenodd" d="M3 9.375C3 8.339 3.84 7.5 4.875 7.5h9.75c1.036 0 1.875.84 1.875 1.875v11.25c0 1.035-.84 1.875-1.875 1.875h-9.75A1.875 1.875 0 0 1 3 20.625V9.375Zm9.586 4.594a.75.75 0 0 0-1.172-.938l-2.476 3.096-.908-.907a.75.75 0 0 0-1.06 1.06l1.5 1.5a.75.75 0 0 0 1.116-.062l3-3.75Z" clip-rule="evenodd" />
    </svg>

    <svg id="clipboard-document-list" xmlns="http://www.w3.org/2000/svg" viewBox="0 0 24 24" fill="currentColor" class="size-6">
        <path fill-rule="evenodd" d="M7.502 6h7.128A3.375 3.375 0 0 1 18 9.375v9.375a3 3 0 0 0 3-3V6.108c0-1.505-1.125-2.811-2.664-2.94a48.972 48.972 0 0 0-.673-.05A3 3 0 0 0 15 1.5h-1.5a3 3 0 0 0-2.663 1.618c-.225.015-.45.032-.673.05C8.662 3.295 7.554 4.542 7.502 6ZM13.5 3A1.5 1.5 0 0 0 12 4.5h4.5A1.5 1.5 0 0 0 15 3h-1.5Z" clip-rule="evenodd" />
        <path fill-rule="evenodd" d="M3 9.375C3 8.339 3.84 7.5 4.875 7.5h9.75c1.036 0 1.875.84 1.875 1.875v11.25c0 1.035-.84 1.875-1.875 1.875h-9.75A1.875 1.875 0 0 1 3 20.625V9.375ZM6 12a.75.75 0 0 1 .75-.75h.008a.75.75 0 0 1 .75.75v.008a.75.75 0 0 1-.75.75H6.75a.75.75 0 0 1-.75-.75V12Zm2.25 0a.75.75 0 0 1 .75-.75h3.75a.75.75 0 0 1 0 1.5H9a.75.75 0 0 1-.75-.75ZM6 15a.75.75 0 0 1 .75-.75h.008a.75.75 0 0 1 .75.75v.008a.75.75 0 0 1-.75.75H6.75a.75.75 0 0 1-.75-.75V15Zm2.25 0a.75.75 0 0 1 .75-.75h3.75a.75.75 0 0 1 0 1.5H9a.75.75 0 0 1-.75-.75ZM6 18a.75.75 0 0 1 .75-.75h.008a.75.75 0 0 1 .75.75v.008a.75.75 0 0 1-.75.75H6.75a.75.75 0 0 1-.75-.75V18Zm2.25 0a.75.75 0 0 1 .75-.75h3.75a.75.75 0 0 1 0 1.5H9a.75.75 0 0 1-.75-.75Z" clip-rule="evenodd" />
    </svg>

    <svg id="cog-6-tooth" xmlns="http://www.w3.org/2000/svg" viewBox="0 0 24 24" fill="currentColor" class="size-6">
        <path fill-rule="evenodd" d="M11.078 2.25c-.917 0-1.699.663-1.85 1.567L9.05 4.889c-.02.12-.115.26-.297.348a7.493 7.493 0 0 0-.986.57c-.166.115-.334.126-.45.083L6.3 5.508a1.875 1.875 0 0 0-2.282.819l-.922 1.597a1.875 1.875 0 0 0 .432 2.385l.84.692c.095.078.17.229.154.43a7.598 7.598 0 0 0 0 1.139c.015.2-.059.352-.153.43l-.841.692a1.875 1.875 0 0 0-.432 2.385l.922 1.597a1.875 1.875 0 0 0 2.282.818l1.019-.382c.115-.043.283-.031.45.082.312.214.641.405.985.57.182.088.277.228.297.35l.178 1.071c.151.904.933 1.567 1.85 1.567h1.844c.916 0 1.699-.663 1.85-1.567l.178-1.072c.02-.12.114-.26.297-.349.344-.165.673-.356.985-.57.167-.114.335-.125.45-.082l1.02.382a1.875 1.875 0 0 0 2.28-.819l.923-1.597a1.875 1.875 0 0 0-.432-2.385l-.84-.692c-.095-.078-.17-.229-.154-.43a7.614 7.614 0 0 0 0-1.139c-.016-.2.059-.352.153-.43l.84-.692c.708-.582.891-1.59.433-2.385l-.922-1.597a1.875 1.875 0 0 0-2.282-.818l-1.02.382c-.114.043-.282.031-.449-.083a7.49 7.49 0 0 0-.985-.57c-.183-.087-.277-.227-.297-.348l-.179-1.072a1.875 1.875 0 0 0-1.85-1.567h-1.843ZM12 15.75a3.75 3.75 0 1 0 0-7.5 3.75 3.75 0 0 0 0 7.5Z" clip-rule="evenodd" />
    </svg>

    <!-- D -->
    <!-- E -->
    <svg id="exclamation-circle" xmlns="http://www.w3.org/2000/svg" viewBox="0 0 24 24" fill="currentColor" class="size-6">
        <path fill-rule="evenodd" d="M2.25 12c0-5.385 4.365-9.75 9.75-9.75s9.75 4.365 9.75 9.75-4.365 9.75-9.75 9.75S2.25 17.385 2.25 12ZM12 8.25a.75.75 0 0 1 .75.75v3.75a.75.75 0 0 1-1.5 0V9a.75.75 0 0 1 .75-.75Zm0 8.25a.75.75 0 1 0 0-1.5.75.75 0 0 0 0 1.5Z" clip-rule="evenodd" />
    </svg>

    <svg id="eye" xmlns="http://www.w3.org/2000/svg" viewBox="0 0 24 24" fill="currentColor" class="size-6">
        <path d="M12 15a3 3 0 1 0 0-6 3 3 0 0 0 0 6Z" />
        <path fill-rule="evenodd" d="M1.323 11.447C2.811 6.976 7.028 3.75 12.001 3.75c4.97 0 9.185 3.223 10.675 7.69.12.362.12.752 0 1.113-1.487 4.471-5.705 7.697-10.677 7.697-4.97 0-9.186-3.223-10.675-7.69a1.762 1.762 0 0 1 0-1.113ZM17.25 12a5.25 5.25 0 1 1-10.5 0 5.25 5.25 0 0 1 10.5 0Z" clip-rule="evenodd" />
    </svg>

    <svg id="eye-slash" xmlns="http://www.w3.org/2000/svg" viewBox="0 0 24 24" fill="currentColor" class="size-6">
        <path d="M3.53 2.47a.75.75 0 0 0-1.06 1.06l18 18a.75.75 0 1 0 1.06-1.06l-18-18ZM22.676 12.553a11.249 11.249 0 0 1-2.631 4.31l-3.099-3.099a5.25 5.25 0 0 0-6.71-6.71L7.759 4.577a11.217 11.217 0 0 1 4.242-.827c4.97 0 9.185 3.223 10.675 7.69.12.362.12.752 0 1.113Z" />
        <path d="M15.75 12c0 .18-.013.357-.037.53l-4.244-4.243A3.75 3.75 0 0 1 15.75 12ZM12.53 15.713l-4.243-4.244a3.75 3.75 0 0 0 4.244 4.243Z" />
        <path d="M6.75 12c0-.619.107-1.213.304-1.764l-3.1-3.1a11.25 11.25 0 0 0-2.63 4.31c-.12.362-.12.752 0 1.114 1.489 4.467 5.704 7.69 10.675 7.69 1.5 0 2.933-.294 4.242-.827l-2.477-2.477A5.25 5.25 0 0 1 6.75 12Z" />
    </svg>

    <!-- F -->
    <svg id="face-frown" xmlns="http://www.w3.org/2000/svg" viewBox="0 0 24 24" fill="currentColor" class="size-6">
        <path fill-rule="evenodd" d="M12 2.25c-5.385 0-9.75 4.365-9.75 9.75s4.365 9.75 9.75 9.75 9.75-4.365 9.75-9.75S17.385 2.25 12 2.25Zm-2.625 6c-.54 0-.828.419-.936.634a1.96 1.96 0 0 0-.189.866c0 .298.059.605.189.866.108.215.395.634.936.634.54 0 .828-.419.936-.634.13-.26.189-.568.189-.866 0-.298-.059-.605-.189-.866-.108-.215-.395-.634-.936-.634Zm4.314.634c.108-.215.395-.634.936-.634.54 0 .828.419.936.634.13.26.189.568.189.866 0 .298-.059.605-.189.866-.108.215-.395.634-.936.634-.54 0-.828-.419-.936-.634a1.96 1.96 0 0 1-.189-.866c0-.298.059-.605.189-.866Zm-4.34 7.964a.75.75 0 0 1-1.061-1.06 5.236 5.236 0 0 1 3.73-1.538 5.236 5.236 0 0 1 3.695 1.538.75.75 0 1 1-1.061 1.06 3.736 3.736 0 0 0-2.639-1.098 3.736 3.736 0 0 0-2.664 1.098Z" clip-rule="evenodd" />
    </svg>

    <svg id="fire" xmlns="http://www.w3.org/2000/svg" viewBox="0 0 24 24" fill="currentColor" class="size-6">
        <path fill-rule="evenodd" d="M12.963 2.286a.75.75 0 0 0-1.071-.136 9.742 9.742 0 0 0-3.539 6.176 7.547 7.547 0 0 1-1.705-1.715.75.75 0 0 0-1.152-.082A9 9 0 1 0 15.68 4.534a7.46 7.46 0 0 1-2.717-2.248ZM15.75 14.25a3.75 3.75 0 1 1-7.313-1.172c.628.465 1.35.81 2.133 1a5.99 5.99 0 0 1 1.925-3.546 3.75 3.75 0 0 1 3.255 3.718Z" clip-rule="evenodd" />
    </svg>

    <!-- G -->
    <!-- H -->
    <!-- I -->
    <!-- J -->
    <!-- K -->
    <!-- L -->
    <svg id="lock-closed" xmlns="http://www.w3.org/2000/svg" viewBox="0 0 24 24" fill="currentColor" class="size-6">
        <path fill-rule="evenodd" d="M12 1.5a5.25 5.25 0 0 0-5.25 5.25v3a3 3 0 0 0-3 3v6.75a3 3 0 0 0 3 3h10.5a3 3 0 0 0 3-3v-6.75a3 3 0 0 0-3-3v-3c0-2.9-2.35-5.25-5.25-5.25Zm3.75 8.25v-3a3.75 3.75 0 1 0-7.5 0v3h7.5Z" clip-rule="evenodd" />
    </svg>

    <!-- M -->
    <svg id="magnifying-glass" xmlns="http://www.w3.org/2000/svg" viewBox="0 0 24 24" fill="currentColor" class="size-6">
        <path fill-rule="evenodd" d="M10.5 3.75a6.75 6.75 0 1 0 0 13.5 6.75 6.75 0 0 0 0-13.5ZM2.25 10.5a8.25 8.25 0 1 1 14.59 5.28l4.69 4.69a.75.75 0 1 1-1.06 1.06l-4.69-4.69A8.25 8.25 0 0 1 2.25 10.5Z" clip-rule="evenodd" />
    </svg>

    <svg id="minus" xmlns="http://www.w3.org/2000/svg" viewBox="0 0 24 24" fill="currentColor" class="size-6">
        <path fill-rule="evenodd" d="M4.25 12a.75.75 0 0 1 .75-.75h14a.75.75 0 0 1 0 1.5H5a.75.75 0 0 1-.75-.75Z" clip-rule="evenodd" />
    </svg>

    <!-- N -->
    <svg id="no-symbol" xmlns="http://www.w3.org/2000/svg" viewBox="0 0 24 24" fill="currentColor" class="size-6">
        <path fill-rule="evenodd" d="m6.72 5.66 11.62 11.62A8.25 8.25 0 0 0 6.72 5.66Zm10.56 12.68L5.66 6.72a8.25 8.25 0 0 0 11.62 11.62ZM5.105 5.106c3.807-3.808 9.98-3.808 13.788 0 3.808 3.807 3.808 9.98 0 13.788-3.807 3.808-9.98 3.808-13.788 0-3.808-3.807-3.808-9.98 0-13.788Z" clip-rule="evenodd" />
    </svg>

    <!-- O -->
    <!-- P -->
    <svg id="plus" xmlns="http://www.w3.org/2000/svg" viewBox="0 0 24 24" fill="currentColor" class="size-6">
        <path fill-rule="evenodd" d="M12 3.75a.75.75 0 0 1 .75.75v6.75h6.75a.75.75 0 0 1 0 1.5h-6.75v6.75a.75.75 0 0 1-1.5 0v-6.75H4.5a.75.75 0 0 1 0-1.5h6.75V4.5a.75.75 0 0 1 .75-.75Z" clip-rule="evenodd" />
    </svg>

    <svg id="plus-circle" xmlns="http://www.w3.org/2000/svg" viewBox="0 0 24 24" fill="currentColor" class="size-6">
        <path fill-rule="evenodd" d="M12 2.25c-5.385 0-9.75 4.365-9.75 9.75s4.365 9.75 9.75 9.75 9.75-4.365 9.75-9.75S17.385 2.25 12 2.25ZM12.75 9a.75.75 0 0 0-1.5 0v2.25H9a.75.75 0 0 0 0 1.5h2.25V15a.75.75 0 0 0 1.5 0v-2.25H15a.75.75 0 0 0 0-1.5h-2.25V9Z" clip-rule="evenodd" />
    </svg>

    <svg id="printer" xmlns="http://www.w3.org/2000/svg" viewBox="0 0 24 24" fill="currentColor" class="size-6">
        <path fill-rule="evenodd" d="M7.875 1.5C6.839 1.5 6 2.34 6 3.375v2.99c-.426.053-.851.11-1.274.174-1.454.218-2.476 1.483-2.476 2.917v6.294a3 3 0 0 0 3 3h.27l-.155 1.705A1.875 1.875 0 0 0 7.232 22.5h9.536a1.875 1.875 0 0 0 1.867-2.045l-.155-1.705h.27a3 3 0 0 0 3-3V9.456c0-1.434-1.022-2.7-2.476-2.917A48.716 48.716 0 0 0 18 6.366V3.375c0-1.036-.84-1.875-1.875-1.875h-8.25ZM16.5 6.205v-2.83A.375.375 0 0 0 16.125 3h-8.25a.375.375 0 0 0-.375.375v2.83a49.353 49.353 0 0 1 9 0Zm-.217 8.265c.178.018.317.16.333.337l.526 5.784a.375.375 0 0 1-.374.409H7.232a.375.375 0 0 1-.374-.409l.526-5.784a.373.373 0 0 1 .333-.337 41.741 41.741 0 0 1 8.566 0Zm.967-3.97a.75.75 0 0 1 .75-.75h.008a.75.75 0 0 1 .75.75v.008a.75.75 0 0 1-.75.75H18a.75.75 0 0 1-.75-.75V10.5ZM15 9.75a.75.75 0 0 0-.75.75v.008c0 .414.336.75.75.75h.008a.75.75 0 0 0 .75-.75V10.5a.75.75 0 0 0-.75-.75H15Z" clip-rule="evenodd" />
    </svg>

    <svg id="photo" xmlns="http://www.w3.org/2000/svg" viewBox="0 0 24 24" fill="currentColor" class="size-6">
        <path fill-rule="evenodd" d="M1.5 6a2.25 2.25 0 0 1 2.25-2.25h16.5A2.25 2.25 0 0 1 22.5 6v12a2.25 2.25 0 0 1-2.25 2.25H3.75A2.25 2.25 0 0 1 1.5 18V6ZM3 16.06V18c0 .414.336.75.75.75h16.5A.75.75 0 0 0 21 18v-1.94l-2.69-2.689a1.5 1.5 0 0 0-2.12 0l-.88.879.97.97a.75.75 0 1 1-1.06 1.06l-5.16-5.159a1.5 1.5 0 0 0-2.12 0L3 16.061Zm10.125-7.81a1.125 1.125 0 1 1 2.25 0 1.125 1.125 0 0 1-2.25 0Z" clip-rule="evenodd" />
    </svg>

    <!-- Q -->
    <!-- R -->
    <!-- S -->
    <!-- T -->
    <!-- U -->
    <svg id="user" xmlns="http://www.w3.org/2000/svg" viewBox="0 0 24 24" fill="currentColor" class="size-6">
        <path fill-rule="evenodd" d="M7.5 6a4.5 4.5 0 1 1 9 0 4.5 4.5 0 0 1-9 0ZM3.751 20.105a8.25 8.25 0 0 1 16.498 0 .75.75 0 0 1-.437.695A18.683 18.683 0 0 1 12 22.5c-2.786 0-5.433-.608-7.812-1.7a.75.75 0 0 1-.437-.695Z" clip-rule="evenodd" />
    </svg>

    <svg id="users" xmlns="http://www.w3.org/2000/svg" viewBox="0 0 24 24" fill="currentColor" class="size-6">
        <path d="M4.5 6.375a4.125 4.125 0 1 1 8.25 0 4.125 4.125 0 0 1-8.25 0ZM14.25 8.625a3.375 3.375 0 1 1 6.75 0 3.375 3.375 0 0 1-6.75 0ZM1.5 19.125a7.125 7.125 0 0 1 14.25 0v.003l-.001.119a.75.75 0 0 1-.363.63 13.067 13.067 0 0 1-6.761 1.873c-2.472 0-4.786-.684-6.76-1.873a.75.75 0 0 1-.364-.63l-.001-.122ZM17.25 19.128l-.001.144a2.25 2.25 0 0 1-.233.96 10.088 10.088 0 0 0 5.06-1.01.75.75 0 0 0 .42-.643 4.875 4.875 0 0 0-6.957-4.611 8.586 8.586 0 0 1 1.71 5.157v.003Z" />
    </svg>

    <!-- V -->
    <!-- W -->
    <!-- X -->
    <!-- Y -->
    <!-- Z -->
</svg>